HIERARCHY
ROOT newVegas:Hips
{
	OFFSET 0.000000 96.479958 0.000000
	CHANNELS 6 Xposition Yposition Zposition Xrotation Yrotation Zrotation
	JOINT newVegas:Pelvis
	{
		OFFSET 0.000000 0.000000 0.000000
		CHANNELS 3 Xrotation Yrotation Zrotation
		JOINT newVegas:LeftUpLeg
		{
			OFFSET 18.735201 -5.666702 -4.541200
			CHANNELS 3 Xrotation Yrotation Zrotation
			JOINT newVegas:LeftLeg
			{
				OFFSET -0.021200 -31.938179 0.493100
				CHANNELS 3 Xrotation Yrotation Zrotation
				JOINT newVegas:LeftFoot
				{
					OFFSET 0.021200 -31.938179 -4.336299
					CHANNELS 3 Xrotation Yrotation Zrotation
					JOINT newVegas:LeftToeBase
					{
						OFFSET 0.943001 -26.722000 15.023500
						CHANNELS 3 Xrotation Yrotation Zrotation
						End Site
						{
							OFFSET 0.000000 30.670183 0.000000
						}
					}
				}
				JOINT newVegas:Left_PantLeg
				{
					OFFSET 0.663870 -9.044666 -1.108900
					CHANNELS 3 Xrotation Yrotation Zrotation
					End Site
					{
						OFFSET 1.415995 20.635357 0.000000
					}
				}
			}
		}
		JOINT newVegas:RightUpLeg
		{
			OFFSET -18.735201 -5.666702 -4.541200
			CHANNELS 3 Xrotation Yrotation Zrotation
			JOINT newVegas:RightLeg
			{
				OFFSET 0.018946 -31.938133 0.493100
				CHANNELS 3 Xrotation Yrotation Zrotation
				JOINT newVegas:RightFoot
				{
					OFFSET -0.018946 -31.938126 -4.336299
					CHANNELS 3 Xrotation Yrotation Zrotation
					JOINT newVegas:RightToeBase
					{
						OFFSET -0.943001 -26.722004 15.023500
						CHANNELS 3 Xrotation Yrotation Zrotation
						End Site
						{
							OFFSET 0.000000 30.670187 0.000000
						}
					}
				}
				JOINT newVegas:Right_PantLeg
				{
					OFFSET -0.661674 -9.044716 -1.108900
					CHANNELS 3 Xrotation Yrotation Zrotation
					End Site
					{
						OFFSET -1.415958 20.635269 0.000000
					}
				}
			}
		}
	}
	JOINT newVegas:Spine
	{
		OFFSET 0.000000 10.199997 -0.299500
		CHANNELS 3 Xrotation Yrotation Zrotation
		JOINT newVegas:Spine1
		{
			OFFSET 0.000000 11.900002 -1.516600
			CHANNELS 3 Xrotation Yrotation Zrotation
			JOINT newVegas:Spine2
			{
				OFFSET 0.000000 13.600006 -2.842500
				CHANNELS 3 Xrotation Yrotation Zrotation
				JOINT newVegas:Neck
				{
					OFFSET 0.000000 9.624100 -2.890100
					CHANNELS 3 Xrotation Yrotation Zrotation
					JOINT newVegas:Head
					{
						OFFSET 0.000000 14.068802 -1.351900
						CHANNELS 3 Xrotation Yrotation Zrotation
						JOINT newVegas:Hair_Back
						{
							OFFSET 0.000000 3.231903 -17.524799
							CHANNELS 3 Xrotation Yrotation Zrotation
							End Site
							{
								OFFSET 0.000000 19.849884 0.000000
							}
						}
						JOINT newVegas:Hair_Front
						{
							OFFSET 0.000000 31.260406 4.573800
							CHANNELS 3 Xrotation Yrotation Zrotation
							JOINT newVegas:Hair_Front1
							{
								OFFSET 0.000000 2.284103 11.993300
								CHANNELS 3 Xrotation Yrotation Zrotation
								JOINT newVegas:Hair_Front2
								{
									OFFSET 0.000000 2.284103 11.993300
									CHANNELS 3 Xrotation Yrotation Zrotation
									End Site
									{
										OFFSET 0.000000 12.208862 0.000000
									}
								}
							}
						}
						JOINT newVegas:Jowel
						{
							OFFSET 0.000000 -7.458206 6.864100
							CHANNELS 3 Xrotation Yrotation Zrotation
							End Site
							{
								OFFSET 0.000000 19.849884 0.000000
							}
						}
					}
				}
				JOINT newVegas:LeftShoulder
				{
					OFFSET 15.263000 10.923401 -0.547700
					CHANNELS 3 Xrotation Yrotation Zrotation
					JOINT newVegas:LeftArm
					{
						OFFSET 25.438599 -2.830597 -13.032500
						CHANNELS 3 Xrotation Yrotation Zrotation
						JOINT newVegas:LeftForeArm
						{
							OFFSET 29.960503 0.000000 0.000000
							CHANNELS 3 Xrotation Yrotation Zrotation
							JOINT newVegas:LeftHand
							{
								OFFSET 27.849251 0.000000 0.000000
								CHANNELS 3 Xrotation Yrotation Zrotation
								JOINT newVegas:LeftHandThumb1
								{
									OFFSET 4.487587 -3.305161 6.305391
									CHANNELS 3 Xrotation Yrotation Zrotation
									JOINT newVegas:LeftHandThumb2
									{
										OFFSET 5.480453 -3.164139 3.164143
										CHANNELS 3 Xrotation Yrotation Zrotation
										JOINT newVegas:LeftHandThumb3
										{
											OFFSET 5.159721 -2.978973 2.978967
											CHANNELS 3 Xrotation Yrotation Zrotation
											End Site
											{
												OFFSET 2.494507 5.926697 1.738678
											}
										}
									}
								}
								JOINT newVegas:LeftHandIndex1
								{
									OFFSET 18.578728 -0.527832 5.208049
									CHANNELS 3 Xrotation Yrotation Zrotation
									JOINT newVegas:LeftHandIndex2
									{
										OFFSET 3.192009 0.000000 0.000000
										CHANNELS 3 Xrotation Yrotation Zrotation
										JOINT newVegas:LeftHandIndex3
										{
											OFFSET 3.835129 0.000000 0.000000
											CHANNELS 3 Xrotation Yrotation Zrotation
											End Site
											{
												OFFSET -0.034599 3.816971 0.371180
											}
										}
									}
								}
								JOINT newVegas:LeftHandMiddle1
								{
									OFFSET 18.476105 0.000000 0.000000
									CHANNELS 3 Xrotation Yrotation Zrotation
									JOINT newVegas:LeftHandMiddle2
									{
										OFFSET 3.324875 0.000000 0.000000
										CHANNELS 3 Xrotation Yrotation Zrotation
										JOINT newVegas:LeftHandMiddle3
										{
											OFFSET 4.596550 0.000000 0.000000
											CHANNELS 3 Xrotation Yrotation Zrotation
											End Site
											{
												OFFSET 0.057701 4.578827 0.399218
											}
										}
									}
								}
								JOINT newVegas:LeftHandRing1
								{
									OFFSET 17.732719 0.121887 -4.201567
									CHANNELS 3 Xrotation Yrotation Zrotation
									JOINT newVegas:LeftHandRing2
									{
										OFFSET 2.733170 0.000000 0.000000
										CHANNELS 3 Xrotation Yrotation Zrotation
										JOINT newVegas:LeftHandRing3
										{
											OFFSET 3.178268 0.000000 0.000000
											CHANNELS 3 Xrotation Yrotation Zrotation
											End Site
											{
												OFFSET 0.119102 3.170624 0.185394
											}
										}
									}
								}
								JOINT newVegas:LeftHandPinky1
								{
									OFFSET 15.989624 -0.606689 -7.535461
									CHANNELS 3 Xrotation Yrotation Zrotation
									JOINT newVegas:LeftHandPinky2
									{
										OFFSET 2.538986 0.000000 0.000000
										CHANNELS 3 Xrotation Yrotation Zrotation
										JOINT newVegas:LeftHandPinky3
										{
											OFFSET 2.593102 0.000000 0.000000
											CHANNELS 3 Xrotation Yrotation Zrotation
											End Site
											{
												OFFSET -0.150902 2.584198 0.152708
											}
										}
									}
								}
							}
							JOINT newVegas:Left_Sleeve
							{
								OFFSET 0.267448 -0.649796 0.577675
								CHANNELS 3 Xrotation Yrotation Zrotation
								End Site
								{
									OFFSET 0.000000 15.991241 0.000000
								}
							}
							JOINT newVegas:Left_CapeC
							{
								OFFSET 15.715958 -8.608795 -6.935905
								CHANNELS 3 Xrotation Yrotation Zrotation
								JOINT newVegas:Left_CapeC1
								{
									OFFSET 0.000000 -8.688499 0.000000
									CHANNELS 3 Xrotation Yrotation Zrotation
									End Site
									{
										OFFSET 0.000000 8.688499 0.000000
									}
								}
							}
						}
						JOINT newVegas:Left_CapeB
						{
							OFFSET 26.118385 -8.608795 -7.079235
							CHANNELS 3 Xrotation Yrotation Zrotation
							JOINT newVegas:Left_CapeB1
							{
								OFFSET 0.000000 -8.688499 0.000000
								CHANNELS 3 Xrotation Yrotation Zrotation
								End Site
								{
									OFFSET 0.000000 8.688499 0.000000
								}
							}
						}
						JOINT newVegas:Left_CapeA
						{
							OFFSET 5.115639 -8.608795 -10.395809
							CHANNELS 3 Xrotation Yrotation Zrotation
							JOINT newVegas:Left_CapeA1
							{
								OFFSET 0.000000 -8.688499 0.000000
								CHANNELS 3 Xrotation Yrotation Zrotation
								End Site
								{
									OFFSET 0.000000 8.688499 0.000000
								}
							}
						}
					}
				}
				JOINT newVegas:RightShoulder
				{
					OFFSET -15.263000 10.923401 -0.547700
					CHANNELS 3 Xrotation Yrotation Zrotation
					JOINT newVegas:RightArm
					{
						OFFSET -25.438599 -2.830597 -13.032500
						CHANNELS 3 Xrotation Yrotation Zrotation
						JOINT newVegas:RightForeArm
						{
							OFFSET -29.960503 0.000000 0.000000
							CHANNELS 3 Xrotation Yrotation Zrotation
							JOINT newVegas:RightHand
							{
								OFFSET -27.849251 0.000000 0.000000
								CHANNELS 3 Xrotation Yrotation Zrotation
								JOINT newVegas:RightHandThumb1
								{
									OFFSET -4.487587 -3.305161 6.305391
									CHANNELS 3 Xrotation Yrotation Zrotation
									JOINT newVegas:RightHandThumb2
									{
										OFFSET -5.480453 -3.164139 3.164143
										CHANNELS 3 Xrotation Yrotation Zrotation
										JOINT newVegas:RightHandThumb3
										{
											OFFSET -5.159721 -2.978973 2.978967
											CHANNELS 3 Xrotation Yrotation Zrotation
											End Site
											{
												OFFSET -2.494507 5.926697 1.738678
											}
										}
									}
								}
								JOINT newVegas:RightHandIndex1
								{
									OFFSET -18.578728 -0.527832 5.208049
									CHANNELS 3 Xrotation Yrotation Zrotation
									JOINT newVegas:RightHandIndex2
									{
										OFFSET -3.192009 0.000000 0.000000
										CHANNELS 3 Xrotation Yrotation Zrotation
										JOINT newVegas:RightHandIndex3
										{
											OFFSET -3.835129 0.000000 0.000000
											CHANNELS 3 Xrotation Yrotation Zrotation
											End Site
											{
												OFFSET 0.034599 3.816971 0.371180
											}
										}
									}
								}
								JOINT newVegas:RightHandMiddle1
								{
									OFFSET -18.476105 0.000000 0.000000
									CHANNELS 3 Xrotation Yrotation Zrotation
									JOINT newVegas:RightHandMiddle2
									{
										OFFSET -3.324875 0.000000 0.000000
										CHANNELS 3 Xrotation Yrotation Zrotation
										JOINT newVegas:RightHandMiddle3
										{
											OFFSET -4.596550 0.000000 0.000000
											CHANNELS 3 Xrotation Yrotation Zrotation
											End Site
											{
												OFFSET -0.057701 4.578827 0.399218
											}
										}
									}
								}
								JOINT newVegas:RightHandRing1
								{
									OFFSET -17.732719 0.121887 -4.201567
									CHANNELS 3 Xrotation Yrotation Zrotation
									JOINT newVegas:RightHandRing2
									{
										OFFSET -2.733170 0.000000 0.000000
										CHANNELS 3 Xrotation Yrotation Zrotation
										JOINT newVegas:RightHandRing3
										{
											OFFSET -3.178268 0.000000 0.000000
											CHANNELS 3 Xrotation Yrotation Zrotation
											End Site
											{
												OFFSET -0.119102 3.170624 0.185394
											}
										}
									}
								}
								JOINT newVegas:RightHandPinky1
								{
									OFFSET -15.989624 -0.606689 -7.535461
									CHANNELS 3 Xrotation Yrotation Zrotation
									JOINT newVegas:RightHandPinky2
									{
										OFFSET -2.538986 0.000000 0.000000
										CHANNELS 3 Xrotation Yrotation Zrotation
										JOINT newVegas:RightHandPinky3
										{
											OFFSET -2.593102 0.000000 0.000000
											CHANNELS 3 Xrotation Yrotation Zrotation
											End Site
											{
												OFFSET 0.150902 2.584198 0.152708
											}
										}
									}
								}
							}
							JOINT newVegas:Right_CapeC
							{
								OFFSET -15.715958 -8.608795 -6.935905
								CHANNELS 3 Xrotation Yrotation Zrotation
								JOINT newVegas:Right_CapeC1
								{
									OFFSET 0.000000 -8.688499 0.000000
									CHANNELS 3 Xrotation Yrotation Zrotation
									End Site
									{
										OFFSET 0.000000 8.688499 0.000000
									}
								}
							}
							JOINT newVegas:Right_Sleeve
							{
								OFFSET -0.267448 -0.649994 0.577675
								CHANNELS 3 Xrotation Yrotation Zrotation
								End Site
								{
									OFFSET 0.000000 15.991302 0.000000
								}
							}
						}
						JOINT newVegas:Right_CapeA
						{
							OFFSET -5.115540 -8.608795 -10.395824
							CHANNELS 3 Xrotation Yrotation Zrotation
							JOINT newVegas:Right_CapeA1
							{
								OFFSET 0.000000 -8.688499 0.000000
								CHANNELS 3 Xrotation Yrotation Zrotation
								End Site
								{
									OFFSET 0.000000 8.688499 0.000000
								}
							}
						}
						JOINT newVegas:Right_CapeB
						{
							OFFSET -26.118187 -8.608795 -7.079266
							CHANNELS 3 Xrotation Yrotation Zrotation
							JOINT newVegas:Right_CapeB1
							{
								OFFSET 0.000000 -8.688499 0.000000
								CHANNELS 3 Xrotation Yrotation Zrotation
								End Site
								{
									OFFSET 0.000000 8.688499 0.000000
								}
							}
						}
					}
				}
				JOINT newVegas:Left_Collar
				{
					OFFSET 18.625099 8.655502 8.828100
					CHANNELS 3 Xrotation Yrotation Zrotation
					JOINT newVegas:Left_Collar1
					{
						OFFSET 14.783401 10.540405 -1.259500
						CHANNELS 3 Xrotation Yrotation Zrotation
						End Site
						{
							OFFSET 0.000000 18.199875 0.000000
						}
					}
				}
				JOINT newVegas:Collar_Back
				{
					OFFSET 0.000000 15.630707 -20.132601
					CHANNELS 3 Xrotation Yrotation Zrotation
					End Site
					{
						OFFSET 0.000000 22.523010 0.000000
					}
				}
				JOINT newVegas:Left_Peck
				{
					OFFSET 17.239599 -5.132599 25.482599
					CHANNELS 3 Xrotation Yrotation Zrotation
					End Site
					{
						OFFSET 0.000000 22.523010 0.000000
					}
				}
				JOINT newVegas:Right_Peck
				{
					OFFSET -17.239599 -5.132202 25.482599
					CHANNELS 3 Xrotation Yrotation Zrotation
					End Site
					{
						OFFSET 0.000000 22.523010 0.000000
					}
				}
				JOINT newVegas:Right_Collar
				{
					OFFSET -18.625099 8.655792 8.828100
					CHANNELS 3 Xrotation Yrotation Zrotation
					JOINT newVegas:Right_Collar1
					{
						OFFSET -14.783401 10.539993 -1.259500
						CHANNELS 3 Xrotation Yrotation Zrotation
						End Site
						{
							OFFSET 0.000000 18.199631 0.000000
						}
					}
				}
			}
		}
		JOINT newVegas:Belly
		{
			OFFSET 0.000000 -6.540398 9.014299
			CHANNELS 3 Xrotation Yrotation Zrotation
			End Site
			{
				OFFSET 0.000000 11.566666 0.000000
			}
		}
	}
	JOINT newVegas:ElvisFacialAnim_Joint
	{
		OFFSET 1.000000 -95.330101 -8.825800
		CHANNELS 3 Xrotation Yrotation Zrotation
		End Site
		{
			OFFSET 0.000000 35.315800 0.000000
		}
	}
}
MOTION
Frames: 4
Frame Time: 0.033333
-10.663948 19.373840 -121.274590 -97.204104 -14.143220 14.175879 0.000000 0.000000 0.000000 -57.455128 -4.258303 36.764692 105.641061 3.095706 0.297034 24.431124 -5.539935 -15.398402 -0.000000 -0.000002 -0.000002 -0.000001 -0.000002 -0.000004 -52.304841 -17.523813 -58.884755 33.485979 10.040711 7.079412 23.864473 -11.464478 -6.016983 0.000000 0.000001 0.000002 0.000001 0.000002 -0.000000 11.974932 8.735304 -6.746298 -0.671542 2.894166 1.386032 -0.721078 2.890303 1.405491 0.779677 -0.317774 0.068515 0.779654 -0.317771 0.068517 0.000000 0.000000 0.000000 0.779674 -0.317775 0.068514 0.779671 -0.317765 0.068514 -0.000000 -0.000000 0.000001 0.000000 0.000000 0.000000 0.544047 -6.002448 -11.638048 68.157898 -10.190011 -18.054205 0.000131 -82.668218 0.000154 -6.115343 3.222859 21.738131 58.664611 -19.316914 21.982486 -13.643299 31.536476 -0.183434 0.000000 -0.000002 -0.000005 0.253315 3.865403 -17.662675 0.930254 3.169428 -32.707406 0.000000 -0.000000 0.000001 0.872196 6.003313 -15.852031 0.762392 2.891774 -29.533314 -0.000002 -0.000000 -0.000000 1.578246 8.289547 -16.371909 0.440573 2.230750 -22.341245 -0.000000 -0.000001 0.000000 2.410303 9.236134 -22.013836 0.878517 3.087498 -31.759649 0.000001 -0.000002 -0.000000 -0.000002 -0.000000 0.000001 -0.000002 -0.000000 0.000001 -0.000002 -0.000000 0.000001 -0.000002 -0.000001 -0.000000 -0.000002 -0.000002 0.000000 -0.000002 -0.000001 -0.000000 -0.000002 -0.000002 -0.000001 6.276835 5.877301 7.751329 10.020921 47.951302 51.632675 0.000001 41.433638 -0.000010 -3.251072 -8.457365 25.567568 20.470540 7.475577 18.843590 4.151729 -12.160903 -33.847986 0.000002 0.000000 -0.000002 -0.887079 1.427985 12.684541 1.917404 -3.767470 53.934329 0.000001 -0.000002 0.000001 0.770903 -5.199583 54.618823 5.563864 -4.568218 101.238573 0.000002 0.000002 0.000002 6.934472 -8.544260 63.908762 2.909307 -4.317388 67.934728 0.000002 0.000001 0.000000 8.373404 -8.171808 73.989937 2.173692 -3.940947 57.745397 -0.000001 0.000002 -0.000001 0.000001 -0.000003 -0.000000 0.000001 -0.000004 0.000000 0.000001 -0.000003 0.000001 -0.000002 0.000002 -0.000002 -0.000002 0.000003 -0.000002 -0.000002 0.000002 -0.000002 -0.000002 0.000003 -0.000002 -0.000000 0.000000 -0.000000 -0.000000 0.000000 -0.000000 -0.000000 0.000000 -0.000000 -0.000000 0.000000 -0.000000 -0.000000 0.000000 -0.000000 -0.000000 0.000000 -0.000000 -0.000000 0.000000 -0.000000 -0.000000 -0.000000 0.000001 0.000000 0.000000 0.000000 
-10.501373 18.980614 -120.229446 -91.851243 -9.171196 16.379497 0.000000 0.000001 -0.000002 -65.746814 -1.453381 33.784667 99.178704 4.867542 0.072656 37.343264 4.194450 -7.348163 0.000002 0.000000 -0.000001 -0.000000 -0.000001 0.000000 -57.867057 -17.694689 -58.828426 30.865731 11.836161 5.566585 30.748043 -11.097599 -4.651850 -0.000000 -0.000000 0.000003 -0.000000 -0.000001 -0.000001 6.350511 5.883478 -6.939456 -1.502749 2.173686 1.384003 -1.549063 2.169176 1.415818 0.657767 -0.245602 0.091369 0.657778 -0.245603 0.091371 -0.000000 -0.000000 0.000001 0.657714 -0.245577 0.091359 0.657852 -0.245640 0.091374 -0.000000 0.000000 0.000000 -0.000000 -0.000000 0.000001 0.540236 -6.307512 -11.617855 80.636346 -13.925279 -16.604120 0.000050 -80.524850 0.000039 -2.937789 10.390174 20.672877 58.664590 -19.316893 21.982462 -13.643295 31.536486 -0.183434 0.000003 -0.000002 -0.000003 -0.119504 2.493928 -15.521084 0.808284 2.971219 -30.430730 0.000001 -0.000001 -0.000001 0.452220 4.651465 -13.702670 0.650614 2.685160 -27.236096 -0.000000 -0.000000 -0.000001 1.058037 6.972438 -14.210285 0.354615 2.009064 -20.017719 -0.000001 0.000001 0.000001 1.739769 7.985953 -19.826636 0.756903 2.882058 -29.424332 -0.000000 -0.000005 0.000000 0.000000 0.000000 0.000000 0.000000 0.000000 0.000000 0.000000 0.000000 0.000000 0.000000 0.000000 -0.000002 0.000000 -0.000001 -0.000001 0.000000 0.000000 -0.000002 0.000000 -0.000001 -0.000001 6.222312 6.139781 7.717445 9.475552 49.875237 53.835787 0.000008 40.958933 -0.000001 -1.144239 -10.778808 28.163740 20.470540 7.475575 18.843590 4.151729 -12.160904 -33.847989 0.000002 -0.000005 0.000001 -0.887085 1.427988 12.684543 1.917408 -3.767468 53.934326 -0.000000 -0.000001 0.000004 0.770900 -5.199581 54.618823 5.563861 -4.568226 101.238573 0.000001 0.000001 0.000001 6.934470 -8.544256 63.908769 2.909308 -4.317385 67.934735 0.000001 -0.000001 -0.000001 8.373407 -8.171812 73.989930 2.173689 -3.940950 57.745397 -0.000001 0.000001 0.000003 -0.000000 0.000001 -0.000003 0.000001 0.000001 -0.000001 -0.000000 0.000001 -0.000002 0.000000 0.000000 -0.000001 0.000000 0.000001 -0.000001 0.000000 0.000000 -0.000001 0.000000 0.000001 -0.000001 -0.000000 -0.000000 -0.000000 -0.000000 -0.000000 -0.000000 -0.000000 -0.000000 -0.000000 -0.000000 -0.000000 -0.000000 -0.000000 -0.000000 -0.000000 -0.000000 -0.000000 -0.000000 -0.000000 -0.000000 -0.000000 -0.000000 -0.000000 0.000001 0.000000 0.000001 -0.000002 
-10.853962 18.641678 -120.055939 -89.704863 -6.502469 17.074935 -0.000000 0.000000 -0.000000 -72.256250 2.448595 35.833963 98.542261 5.824843 -0.839548 33.994377 9.312417 4.657126 0.000002 0.000000 0.000002 0.000000 -0.000003 0.000000 -60.270539 -18.699195 -58.573271 30.441033 11.467878 3.565245 31.797256 -13.038473 -4.059006 -0.000000 -0.000000 0.000001 0.000001 -0.000002 -0.000001 4.283850 4.581048 -6.851359 -2.003919 1.834896 1.537431 -2.047083 1.818627 1.574186 0.484068 -0.209651 0.064629 0.484067 -0.209647 0.064629 0.000000 -0.000000 0.000001 0.484074 -0.209651 0.064637 0.484103 -0.209654 0.064631 0.000000 0.000000 -0.000001 0.000000 -0.000000 0.000001 0.536885 -6.460512 -11.613759 86.163239 -15.517324 -15.799611 0.000016 -79.160451 0.000014 -1.361098 15.433053 17.895231 58.664590 -19.316912 21.982472 -13.643297 31.536466 -0.183402 0.000000 -0.000001 -0.000004 -0.381515 1.824537 -17.408235 0.903903 3.128063 -32.227674 0.000001 0.000001 -0.000001 0.290537 3.974090 -15.596322 0.736324 2.845316 -29.012455 0.000000 0.000001 0.000000 0.967558 6.294921 -16.107954 0.418954 2.177459 -21.779149 0.000001 0.000001 0.000000 1.602485 7.318011 -21.716067 0.847840 3.037458 -31.185466 -0.000001 -0.000005 -0.000003 0.000000 0.000000 0.000000 0.000000 0.000000 0.000000 0.000000 0.000000 0.000000 -0.000000 -0.000001 0.000000 -0.000000 -0.000002 0.000000 -0.000000 -0.000001 0.000000 -0.000000 -0.000001 0.000000 6.214593 6.177042 7.712650 10.303431 50.343938 53.903365 0.000023 42.814112 -0.000024 -0.097633 -13.546359 30.065297 20.470540 7.475582 18.843594 4.151728 -12.160903 -33.847983 -0.000000 -0.000002 -0.000001 -0.887084 1.427986 12.684542 1.917407 -3.767468 53.934326 -0.000001 0.000001 -0.000001 0.770899 -5.199579 54.618823 5.563861 -4.568223 101.238573 0.000002 -0.000001 0.000001 6.934472 -8.544254 63.908769 2.909306 -4.317386 67.934735 0.000002 -0.000001 0.000000 8.373411 -8.171805 73.989937 2.173689 -3.940943 57.745390 0.000002 0.000000 -0.000003 -0.000001 0.000008 -0.000000 -0.000001 0.000002 0.000001 -0.000001 0.000007 -0.000000 -0.000004 0.000001 -0.000000 -0.000004 0.000002 -0.000000 -0.000004 0.000001 -0.000000 -0.000004 0.000002 -0.000000 -0.000000 -0.000000 0.000000 -0.000000 -0.000000 0.000000 -0.000000 -0.000000 0.000000 -0.000000 -0.000000 0.000000 -0.000000 -0.000000 0.000000 -0.000000 -0.000000 0.000000 -0.000000 -0.000000 0.000000 -0.000000 0.000000 0.000000 -0.000000 0.000000 -0.000000 
-9.994686 18.493134 -119.835541 -88.949151 -4.597164 17.404782 -0.000000 -0.000000 0.000001 -75.837448 5.329304 40.786529 98.421824 4.946864 -2.123200 32.134073 9.444305 9.807995 -0.000001 -0.000001 -0.000001 0.000000 0.000001 0.000002 -63.786945 -19.359913 -59.555773 32.642068 11.320882 0.630714 28.737778 -11.992251 -5.615003 0.000002 -0.000003 -0.000001 0.000000 0.000003 0.000000 3.350863 3.601484 -6.107471 -2.211890 1.532744 1.615762 -2.248150 1.505356 1.651671 0.383261 -0.172416 -0.011568 0.383283 -0.172419 -0.011560 -0.000000 -0.000000 -0.000002 0.383272 -0.172394 -0.011576 0.383265 -0.172429 -0.011563 -0.000000 0.000000 -0.000002 -0.000000 -0.000000 -0.000001 0.536874 -6.460514 -11.613758 86.612352 -16.258651 -15.733573 0.000031 -79.616127 0.000028 -0.568963 17.468832 16.094403 58.664577 -19.316888 21.982448 -13.643296 31.536489 -0.183418 -0.000006 0.000001 -0.000003 -0.641197 2.023924 -24.108269 1.301073 3.682526 -38.906660 0.000001 -0.000001 0.000001 0.307122 4.108389 -22.319733 1.100421 3.419509 -35.667996 -0.000004 0.000001 0.000002 1.260266 6.368923 -22.852496 0.707696 2.793113 -28.430203 0.000001 0.000001 -0.000001 1.969929 7.340754 -28.469009 1.233991 3.597978 -37.850241 0.000001 -0.000001 -0.000004 0.000001 0.000000 0.000000 0.000001 0.000000 0.000000 0.000001 0.000000 0.000000 -0.000000 -0.000001 -0.000001 -0.000000 -0.000002 -0.000001 -0.000000 -0.000001 -0.000001 -0.000000 -0.000001 -0.000001 6.214584 6.177045 7.712655 11.006531 50.387993 53.543940 0.000010 44.390130 -0.000017 0.965830 -15.930265 31.975869 20.470538 7.475580 18.843587 4.151733 -12.160909 -33.847983 0.000001 -0.000005 -0.000003 -0.887087 1.427984 12.684541 1.917406 -3.767475 53.934326 -0.000001 0.000000 -0.000001 0.770899 -5.199579 54.618823 5.563861 -4.568220 101.238573 0.000001 -0.000000 0.000000 6.934471 -8.544252 63.908769 2.909309 -4.317389 67.934728 0.000003 0.000001 -0.000000 8.373405 -8.171803 73.989937 2.173693 -3.940946 57.745397 0.000002 0.000003 0.000002 -0.000000 0.000001 -0.000002 -0.000000 0.000001 -0.000001 -0.000000 0.000001 -0.000001 0.000001 0.000001 -0.000001 0.000001 0.000002 -0.000000 0.000001 0.000001 -0.000001 0.000001 0.000002 -0.000000 -0.000000 -0.000000 0.000001 -0.000000 -0.000000 0.000001 -0.000000 -0.000000 0.000001 -0.000000 -0.000000 0.000001 -0.000000 -0.000000 0.000001 -0.000000 -0.000000 0.000001 -0.000000 -0.000000 0.000001 0.000000 0.000000 -0.000000 -0.000000 -0.000000 0.000001 
